<svg viewBox="0 0 512 512" xmlns="http://www.w3.org/2000/svg" fill-rule="evenodd" clip-rule="evenodd" stroke-linejoin="round" stroke-miterlimit="2"><g transform="translate(5.999 118.957) scale(1.24585)"><clipPath id="prefix__a"><path d="M0 0h401.333v220H0z"/></clipPath><g clip-path="url(#prefix__a)"><path d="M200.974 135.396l-70.122-37.067L9.129 33.996c-.112-.11-.333-.11-.445-.11-4.444-2.113-9 2.333-7.333 6.777l62.022 158.189.01.033c.068.156.124.31.19.467 2.546 5.9 8.1 9.543 14.145 10.977.511.112.876.212 1.49.334.612.136 1.466.322 2.2.378.12.01.232.01.354.021h.09c.088.012.177.012.266.023h.122c.078.01.166.01.245.01h.144c.09.012.177.012.267.012a1090.3 1090.3 0 00236.345 0c.944 0 1.866-.045 2.754-.133l.846-.1c.033-.012.077-.012.11-.023.19-.022.378-.056.567-.089.277-.033.556-.088.833-.144.556-.123.808-.21 1.563-.47.753-.26 2.005-.713 2.788-1.09.784-.377 1.327-.74 1.983-1.15.81-.509 1.598-1.05 2.365-1.622.337-.259.568-.424.812-.657l-.134-.078-132.754-70.155z" fill="#ff4b4b" fill-rule="nonzero"/><path d="M393.02 33.997h-.11L271.142 98.33l67.69 100.812 61.866-158.478v-.223c1.556-4.666-3.222-8.888-7.678-6.444" fill="#7d353b" fill-rule="nonzero"/><path d="M207.463 3.408c-3.112-4.545-9.889-4.545-12.889 0L130.852 98.33l70.122 37.067 132.89 70.232c.834-.818 1.503-1.614 2.21-2.455a27.878 27.878 0 002.756-4.033L271.14 98.33 207.464 3.407z" fill="#bd4043" fill-rule="nonzero"/></g></g></svg>